<?xml version="1.0" encoding="utf-8"?>
<!-- Generator: Adobe Illustrator 26.0.3, SVG Export Plug-In . SVG Version: 6.00 Build 0)  -->
<svg version="1.1" xmlns="http://www.w3.org/2000/svg" xmlns:xlink="http://www.w3.org/1999/xlink" x="0px" y="0px"
	 viewBox="0 0 300 300" style="enable-background:new 0 0 300 300;" xml:space="preserve">
<style type="text/css">
	.st0{display:none;}
	.st1{display:inline;fill:#FFFFFF;stroke:#1D1D1B;stroke-miterlimit:10;}
	.st2{fill:none;stroke:#424242;stroke-width:3;stroke-miterlimit:10;}
</style>
<g id="Capa_1" class="st0">
	<path class="st1" d="M26.8,155.3C17,167,17,183,23,197c4,8,10,14,18,17c11,4,23,2,34.5,5c3,0.7,5.9,1.7,8.5,3c10,6,9,19,9,30
		c0,8,4,15,12,17.7c3.5,1.3,7.1,2.5,10.7,3.5c3.6,1,7.4,1.9,11,2.1C132,275,137,274,141,272c3.7-2,7.2-4.7,10.9-7.3
		c1.8-1.3,3.6-2.6,5.5-3.7c3.6-3,7.6-4,12.6-5c16-1,31,10,46,3c19-9,2-33,9-49c1-2,3-4,5-6c2-2,4-3,7-4c12-3,25,0,34-9
		c16-14,17-38,9-57c-7-14-24-14-36.3-19.8c-3.9-1.2-7-3-9.4-5.2c-11.8-11.1-5.8-33.1-3.3-49c5-31-35-20-54.2-22.4
		c-2.6-0.4-5.1-0.9-7.7-1.5C147,25,118,2,98,31c-9,14-3,30-9.7,44.2c-1.5,3-3.5,5.6-6.3,7.8c-2.2,1.7-4.6,2.6-7.2,3
		c-2.6,0.4-5.3,0.4-8.1,0.2C58,85,45,82,41,92c-3.5,9-1,19.2,0.3,29.1c0.4,3.3,0.7,6.5,0.6,9.7C41,138,39,144,32.6,148.7
		C30.5,150.9,28.6,153.1,26.8,155.3z"/>
</g>
<g id="Capa_1_copia">
	<path class="st2" d="M26.8,155.3C17,167,17,183,23,197c4,8,10,14,18,17c11,4,23,2,34.5,5c3,0.7,5.9,1.7,8.5,3c10,6,9,19,9,30
		c0,8,4,15,12,17.7c3.5,1.3,7.1,2.5,10.7,3.5c3.6,1,7.4,1.9,11,2.1C132,275,137,274,141,272c3.7-2,7.2-4.7,10.9-7.3
		c1.8-1.3,3.6-2.6,5.5-3.7c3.6-3,7.6-4,12.6-5c16-1,31,10,46,3c19-9,2-33,9-49c1-2,3-4,5-6c2-2,4-3,7-4c12-3,25,0,34-9
		c16-14,17-38,9-57c-7-14-24-14-36.3-19.8c-3.9-1.2-7-3-9.4-5.2c-11.8-11.1-5.8-33.1-3.3-49c5-31-35-20-54.2-22.4
		c-2.6-0.4-5.1-0.9-7.7-1.5C147,25,118,2,98,31c-9,14-3,30-9.7,44.2c-1.5,3-3.5,5.6-6.3,7.8c-2.2,1.7-4.6,2.6-7.2,3
		c-2.6,0.4-5.3,0.4-8.1,0.2C58,85,45,82,41,92c-3.5,9-1,19.2,0.3,29.1c0.4,3.3,0.7,6.5,0.6,9.7C41,138,39,144,32.6,148.7
		C30.5,150.9,28.6,153.1,26.8,155.3z"/>
</g>
</svg>
