<?xml version="1.0" encoding="utf-8"?>
<!-- Generator: Adobe Illustrator 26.0.3, SVG Export Plug-In . SVG Version: 6.00 Build 0)  -->
<svg version="1.1" id="Capa_1" xmlns="http://www.w3.org/2000/svg" xmlns:xlink="http://www.w3.org/1999/xlink" x="0px" y="0px"
	 viewBox="0 0 200 200" style="enable-background:new 0 0 200 200;" xml:space="preserve">
<style type="text/css">
	.st0{fill:#373431;}
	.st1{fill:#FFFFFF;}
	.st2{fill:#72655A;}
	.st3{fill:none;stroke:#72655A;stroke-width:2;stroke-linecap:round;stroke-linejoin:round;stroke-miterlimit:10;}
</style>
<path class="st0" d="M179.1,180.5l-67.1,2.4c-4.7,0.2-9.4,0.6-14.1,1.4l-82,13.9c-5.1,0.9-9.5-3.8-8.2-8.8l17.1-70.5
	c3.9-16.1,4.5-32.8,1.7-49.1l-4.6-27.3c-0.6-3.6,1.9-7,5.6-7.5l100.6-12.8c6.7-0.8,13.4-0.5,20,1l20.6,4.7c4.8,1.1,8,5.5,7.7,10.4
	l-1.6,20.9c-0.2,3.2-0.2,6.4,0.2,9.6L186.4,172C186.9,176.4,183.6,180.3,179.1,180.5z"/>
<g>
	<g>
		<g>
			<g>
				<path class="st1" d="M48.4,166.4c0,0.9-0.1,1.6-0.4,2.3c-0.3,0.7-0.7,1.3-1.2,1.9s-1.1,0.9-1.8,1.2c-0.7,0.3-1.5,0.4-2.3,0.4
					c-0.8,0-1.6-0.1-2.3-0.4c-0.7-0.3-1.3-0.7-1.8-1.2s-0.9-1.1-1.2-1.9c-0.3-0.7-0.4-1.5-0.4-2.3s0.1-1.6,0.4-2.3s0.7-1.3,1.2-1.9
					c0.5-0.5,1.1-0.9,1.8-1.2s1.5-0.4,2.3-0.4c0.8,0,1.6,0.1,2.3,0.4c0.7,0.3,1.3,0.7,1.8,1.2c0.5,0.5,0.9,1.1,1.2,1.9
					S48.4,165.5,48.4,166.4z M47.2,166.4c0-0.7-0.1-1.3-0.3-1.9s-0.5-1.1-0.9-1.6c-0.4-0.4-0.9-0.8-1.5-1.1
					c-0.6-0.3-1.2-0.4-1.9-0.4c-0.7,0-1.4,0.1-1.9,0.4c-0.6,0.3-1.1,0.6-1.5,1.1c-0.4,0.4-0.7,1-0.9,1.6s-0.3,1.2-0.3,1.9
					c0,0.7,0.1,1.3,0.3,1.9s0.5,1.1,0.9,1.5c0.4,0.4,0.9,0.8,1.5,1.1s1.2,0.4,1.9,0.4c0.7,0,1.4-0.1,1.9-0.4s1.1-0.6,1.5-1.1
					c0.4-0.4,0.7-1,0.9-1.5S47.2,167,47.2,166.4z"/>
				<path class="st1" d="M61.9,170.3L61.9,170.3l0-9.5H63v11.2h-1.4l-6.5-9.6h0v9.6H54v-11.2h1.4L61.9,170.3z"/>
				<path class="st1" d="M70.3,170.9h5.2v1h-6.3v-11.2h1.1V170.9z"/>
				<path class="st1" d="M82.8,171.9h-1.1v-4.8l-4.2-6.4h1.4l3.4,5.4l3.4-5.4H87l-4.2,6.4V171.9z"/>
				<path class="st1" d="M98,171.9h-1.2l4.8-11.2h1.1l4.8,11.2h-1.3l-1.2-2.9h-5.8L98,171.9z M99.6,168h4.9L102,162L99.6,168z"/>
				<path class="st1" d="M124.6,170L124.6,170l3.8-9.2h1.7v11.2h-1.1v-9.7h0l-4,9.7h-0.6l-4-9.7h0v9.7H119v-11.2h1.7L124.6,170z"/>
				<path class="st1" d="M136.1,171.9h-1.2l4.8-11.2h1.1l4.8,11.2h-1.3l-1.2-2.9h-5.8L136.1,171.9z M137.7,168h4.9l-2.5-5.9
					L137.7,168z"/>
				<path class="st1" d="M158.3,170.3L158.3,170.3l0-9.5h1.1v11.2H158l-6.5-9.6h0v9.6h-1.1v-11.2h1.4L158.3,170.3z"/>
			</g>
		</g>
		<g>
			<path class="st1" d="M126.3,98.8c-0.3,0-0.5,0.1-0.8,0.2c0.1-0.6,0.1-1.1,0.1-1.3c0.4-2.9,0.2-4.2,0.5-7.6
				c0.1-1.3,0.3-2.4,0.3-2.5c0.1-1,0.3-2.1,0.4-2.9c0.1-1,0.1-1.9,0-2.7c0,0,0.2,0.2,0.3,0.4c0.2,0.4,0.2,0.8,0.3,1.1
				c0.1-0.3,0.4-1.3,0.4-1.6c0.1-0.7,0-1.4-0.2-2c-0.2-0.7-1-1.9-1.9-3.1c0.2,0,0.3,0,0.5,0c-0.3-3.7-1.5-7.3-5.3-10.5
				c-2.7-2.3-5.8-4.4-8.7-6.6c-0.1-0.1-0.3-0.1-0.4-0.1c-0.2,0.3-0.4,0.6-0.6,0.8c-0.4-0.2-0.8-0.5-1.2-0.7c-0.1,0-0.1-0.1-0.2-0.2
				c-0.7-0.5-1-0.5-1.7,0c-0.8,0.6-1.9,0.6-2.7,0c-0.2-0.2-0.4-0.3-0.7-0.4c-0.1,0-0.2,0-0.3,0.1c0,0.3,0,0.5,0,0.8
				c0,0.2-0.2,0.4-0.3,0.7c-0.3-0.1-0.7-0.2-1-0.4c-0.4-0.2-0.6-0.5-0.9-0.8c-1.3-1.3-2.7-2.5-4-3.8c-0.2-0.2-0.4-0.3-0.9-0.5
				c-0.1,0.4-0.2,0.6-0.2,0.9c-0.3,0.9-0.4,1.8-0.8,2.7c-0.2,0.4-1,0.9-1.6,0.9c-0.8,0.1-1.4-0.4-1.7-0.9c-0.1-0.2-0.3-0.3-0.4-0.5
				h-0.4c-0.3,0.6-0.5,1.2-0.9,1.9c-0.1,0.2-0.4,0.3-0.6,0.5c-0.2-0.1-0.4-0.3-0.6-0.4c-1-1.2-1.9-2.3-2.8-3.5
				C87,56,86.6,56,86,56.4c-4.3,3.5-8.6,7.1-12.7,10.7c-1.5,1.3-2.8,2.8-3.9,4.3c-0.9,1.3-1.3,2.6-1.5,3.9c0,0,0,0,0,0
				c-1.3,1.9-2.2,4-2.5,6.5c0.5-0.1,1-0.2,1.7-0.4c-0.1,0.8-0.2,1.5-0.3,2.2c0,0.6,0,1.1,0.2,1.7c0.2,0.8,0.6,1.6,0.9,2.4
				c0.2,0.9,1,6.1,1.7,11.2c-1.1,0.2-2.1,1-2.1,2.9c0,2.1,0.3,3.9,0.6,4.8c0.3,0.9,0.8,2,1,3.2c0.2,1.2,0.1,2.4,0.6,3.2
				c0.4,0.7,1,1.3,2,1.3c0,0,0.1,0,0.1-0.1c0.5,4.4,1.2,10.1,1.4,11.9c2.9,9.1,14.2,11.5,18.3,13.6c1.6,0.8,3.2,0.9,4.8-0.1
				c0.7-0.4,1.3-0.4,1.9,0.3c0.2,0.2,0.7,0.3,0.9,0.2c0.7-0.3,0.9,0,1.2,0.5c0.3,0.4,0.7,0.7,1,1c0.2-0.3,0.5-0.6,0.7-1
				c0.7-1.4,1-1.4,1.9-0.2c0.4,0.5,0.7,0.8,1.4,0.4c1.4-0.8,2.8-1.6,4.2-2.4c2.9-1.6,11.9-3.1,14.1-12.3c0.1-1.6,0.4-6.6,0.8-11.9
				c0,0.1,0.1,0.1,0.1,0.1c1,0,1.5-0.7,2-1.3c0.5-0.8,0.5-2,0.6-3.2c0.2-1.2,0.8-2.3,1-3.2c0.3-1,0.6-2.7,0.6-4.8
				C128.9,99.5,127.5,98.8,126.3,98.8z M110,127.7c0,0.2-0.1,0.3-0.1,0.5c-0.3,2.9-1.3,3.2-4,3.4c-0.9,0.1-1.8,0.2-2.6,0.2
				c-1,0-1.5-0.4-1.5-1.5c0-0.2,0-0.4,0-0.7c-0.2-3-0.6-3.4-3.4-3.3c-0.9,0.1-1.4,0.4-1.3,1.4c0,0.6-0.1,1.1-0.2,1.7
				c-0.3,1.1-1,2-2.2,1.8c-1.9-0.2-3.8-0.4-5.7-0.8c-1.2-0.3-1.6-1.5-1.8-2.7c-0.1-0.7-0.1-1.4-0.1-2.1c-0.2-2.6,0.9-4.6,2.5-6.2
				c1.2-1.3,2.6-2.4,3.9-3.4c0.3-0.2,1-0.2,1.3,0c1.5,1,2.9,1.1,4.4,0.1c0.3-0.2,1.1,0.1,1.4,0.4c0.7,0.7,1.1,0.9,1.7-0.1
				c0.2-0.3,1-0.6,1.3-0.5c2.5,0.8,5.4,2.7,6.3,6.3C110.2,124.2,110.4,125.9,110,127.7z M118.9,117.8c-1.2,0.9-2.5,1.6-3.7,2.3
				c-1,0.6-2.1,0.6-3-0.1c-1.6-1.1-3-2.3-4.5-3.5c-0.8-0.7-1.6-1.4-2.4-2.2c-0.6-0.6-1-1-1.8-0.2c-0.2,0.2-1,0-1.4-0.2
				c-0.6-0.3-1-0.4-1.6,0.1c-0.3,0.2-1,0.2-1.3,0c-0.6-0.3-1-0.5-1.5,0c-0.2,0.1-3.6-0.5-3.8-0.6c-0.3-0.1-0.8-0.3-1.1-0.2
				c-1,0.5-1.9,1.1-2.8,1.8c-1.3,1-2.4,2.1-3.7,3.1c-1.2,1-2.9,1-4.1,0.1c-2.1-1.5-5.9-4.1-7.8-6c-0.4-0.3-2-2.7-2-8.2
				c-0.2-7.9,0.5-14.4,1.5-22.2c3.5-11.1,13.6-11.7,17.4-11.5c-0.9,0.8-1.8,1.4-2.7,1.9c0,0-0.1,0.1-0.1,0.1c-0.8,0.4-1.5,0.9-2.4,1
				c-0.1,0-0.3,0.1-0.3,0.2c0,0.1,0,0.3,0.1,0.4c0.3,0.2,0.5,0.4,0.8,0.5c0.9,0.3,1.7,0.3,2.6,0.2c0.5-0.1,0.9-0.3,1.4-0.4
				c0.2-0.1,0.3-0.1,0.5-0.2c1.3-0.7,2.6-1.3,3.8-2.1c0.1-0.1,0.2-0.1,0.3-0.2c0.9,0.3,1.8,0.6,2.5,0.6c1.7,0,3.9-1.3,4.9-1.7
				c1.7-0.6,13.4-0.2,17.9,11.3c1.1,3.2,2.1,6.6,2.6,11.3c0.3,2.9,0,5.9,0,8.8c0,0,0.1,0,0.1,0c0,2.7,0,4.6,0,7.2
				C123.4,112.6,121.6,115.8,118.9,117.8z"/>
			<path class="st1" d="M107.5,119.3c-0.2-0.1-0.3-0.1-0.5-0.2c-1.2-0.2-2.4,0-3.6,0.3c-0.1,0-0.1,0.1-0.2,0.1c0,0,0.1,0.1,0.1,0.1
				c0.2,0,0.3,0.1,0.5,0.1c0.3,0,0.4,0.1,0.3,0.3c-0.4,0.6-0.7,1.2-1.2,1.8c-0.4,0.6-1,0.9-1.9,1c-1.2,0.2-2.5,0.4-3.8,0.5
				c-1.1,0.1-2.2,0.1-3.3,0.2c-0.1,0-0.3,0-0.4,0.1c0,0,0,0.1,0,0.1c0.1,0,0.2,0.1,0.3,0.1c0.5,0,1,0.1,1.5,0.1
				c1.7,0,3.4-0.1,5.1-0.2c1.5-0.1,2.7-0.5,3.5-1.5c0.6-0.6,1.1-1.3,1.6-2c0.2-0.2,0.3-0.3,0.6-0.3c0.4,0,0.7-0.1,1.1-0.2
				C107.7,119.6,107.7,119.4,107.5,119.3z"/>
			<path class="st1" d="M100,106.7c0,0.1,0,0.3,0.1,0.4c0,0,0.1,0,0.1,0c0-0.1,0.1-0.2,0.1-0.3c0-0.5,0.1-1,0.1-1.5
				c0-1.6-0.1-3.3-0.3-4.9c-0.1-0.6-0.2-1.2-0.5-1.7c-0.1,0.7-0.2,1.3-0.3,2c0.2,0.9,0.4,1.9,0.5,2.8
				C99.9,104.6,99.9,105.7,100,106.7z"/>
			<path class="st1" d="M96.9,110.5c-0.8-0.6-1.7-1.1-2.6-1.6c-0.2-0.1-0.5-0.2-0.7-0.2c-0.7,0.1-1.1,0.5-1.4,1
				c-0.3,0.6-0.2,1,0.5,1.2c0.8,0.2,1.5,0.3,2.3,0.1c0.2-0.1,0.5-0.1,0.7,0c0.6,0.2,1.1,0.5,1.7,0.8c0.1,0.1,0.3,0,0.4,0.1
				c0-0.1,0-0.3-0.1-0.4C97.5,111.1,97.2,110.7,96.9,110.5z"/>
			<path class="st1" d="M103.8,108.6c-0.2,0.1-0.5,0.1-0.7,0.2c-0.9,0.5-1.7,1-2.6,1.6c-0.3,0.2-0.6,0.6-0.9,1
				c-0.1,0.1,0,0.2-0.1,0.4c0.1,0,0.3,0,0.4-0.1c0.6-0.3,1.1-0.6,1.7-0.8c0.2-0.1,0.5-0.1,0.7,0c0.8,0.2,1.5,0.1,2.3-0.1
				c0.7-0.2,0.8-0.6,0.5-1.2C104.9,109.1,104.5,108.7,103.8,108.6z"/>
			<path class="st1" d="M94,89.6c-0.2-0.6-0.5-0.9-1.1-1c-1.7-0.3-3.5-0.7-5.2-1c-0.8-0.2-1.5-0.3-2.3-0.5c0.2-0.2,0.3-0.3,0.5-0.6
				c-0.3,0-0.5,0-0.7,0c-0.8,0.2-1.6,0.3-2.3,0.5c-2,0.7-4.1,1.4-6.1,2.1c-0.2,0.1-0.4,0.2-0.5,0.4c-0.3,0.9-0.2,1.8,0,2.6
				c1.1-0.4,2.1-0.9,3.1-1.2c1.6-0.4,3.3-0.7,4.9-0.3c0.5,0.1,0.9,0.3,1.4,0.3c1.6,0.3,3.2,0.6,4.8,0.8c1.4,0.2,2.8,0.4,4.3,0.6
				C94.5,91.3,94.2,90.5,94,89.6z"/>
			<path class="st1" d="M94.4,85c0.1,1.5,0.8,2.7,1.2,4.2C95.7,87.7,95.1,85.4,94.4,85z"/>
			<path class="st1" d="M82.5,95.7c-0.6,0.6-1,1.3-1.1,2l9,0.8l-6-4C83.7,94.8,83,95.3,82.5,95.7z"/>
			<path class="st1" d="M118.6,89.1c-2-0.7-4.1-1.5-6.1-2.1c-0.7-0.2-1.5-0.4-2.3-0.5c-0.2,0-0.4,0-0.7,0c0.2,0.3,0.3,0.4,0.5,0.6
				c-0.8,0.2-1.6,0.3-2.3,0.5c-1.7,0.3-3.4,0.7-5.2,1c-0.6,0.1-0.9,0.4-1.1,1c-0.2,0.9-0.5,1.8-0.9,2.9c1.6-0.2,2.9-0.4,4.3-0.6
				c1.6-0.3,3.2-0.5,4.8-0.8c0.5-0.1,0.9-0.2,1.4-0.3c1.7-0.4,3.3-0.1,4.9,0.3c1.1,0.3,2.1,0.8,3.1,1.2c0.3-0.8,0.3-1.7,0-2.6
				C119,89.3,118.8,89.2,118.6,89.1z"/>
			<path class="st1" d="M101,85c-0.7,0.4-1.4,2.8-1.2,4.2C100.3,87.7,100.9,86.4,101,85z"/>
			<path class="st1" d="M110.9,94.5l-6,4l9-0.8c-0.1-0.7-0.4-1.4-1.1-2C112.3,95.3,111.7,94.8,110.9,94.5z"/>
		</g>
	</g>
	<g>
		<g>
			<path class="st1" d="M122.2,138.5c0-0.5,0.1-0.9,0.3-1.3c0.2-0.4,0.4-0.7,0.7-1c0.3-0.3,0.6-0.5,1-0.7c0.4-0.2,0.8-0.2,1.2-0.2
				c0.4,0,0.9,0.1,1.2,0.2c0.4,0.2,0.7,0.4,1,0.7s0.5,0.6,0.7,1c0.2,0.4,0.3,0.8,0.3,1.3c0,0.5-0.1,0.9-0.3,1.3
				c-0.2,0.4-0.4,0.7-0.7,1s-0.6,0.5-1,0.7c-0.4,0.2-0.8,0.2-1.2,0.2c-0.4,0-0.9-0.1-1.2-0.2c-0.4-0.2-0.7-0.4-1-0.7s-0.5-0.6-0.7-1
				C122.3,139.3,122.2,138.9,122.2,138.5z M122.7,138.5c0,0.4,0.1,0.7,0.2,1.1s0.3,0.6,0.6,0.9s0.5,0.4,0.9,0.6s0.7,0.2,1.1,0.2
				c0.4,0,0.7-0.1,1.1-0.2c0.3-0.1,0.6-0.3,0.9-0.6s0.4-0.5,0.6-0.9c0.1-0.3,0.2-0.7,0.2-1.1c0-0.4-0.1-0.7-0.2-1.1
				c-0.1-0.3-0.3-0.6-0.6-0.9s-0.5-0.4-0.9-0.6c-0.3-0.1-0.7-0.2-1.1-0.2c-0.4,0-0.7,0.1-1.1,0.2s-0.6,0.3-0.9,0.6s-0.4,0.5-0.6,0.9
				S122.7,138.1,122.7,138.5z M124.2,136.6h1.4c0.4,0,0.8,0.1,1,0.3c0.2,0.2,0.3,0.4,0.3,0.8c0,0.3-0.1,0.6-0.3,0.7
				s-0.4,0.2-0.7,0.3l1.1,1.6h-0.6l-1-1.6h-0.7v1.6h-0.5V136.6z M124.7,138.3h0.6c0.1,0,0.2,0,0.4,0c0.1,0,0.2,0,0.3-0.1
				c0.1,0,0.2-0.1,0.2-0.2c0.1-0.1,0.1-0.2,0.1-0.3c0-0.1,0-0.2-0.1-0.3c0-0.1-0.1-0.1-0.2-0.2s-0.2-0.1-0.3-0.1c-0.1,0-0.2,0-0.3,0
				h-0.8V138.3z"/>
		</g>
	</g>
</g>
<g>
	<path class="st2" d="M97.5,25.9c-0.7-0.5-0.8-1.1-0.9-1.6c-0.1-1.6,0.6-3.2,0.7-4.9c0-2.2,0.1-4.3,0.1-6.5c0-3.8,0-9.2,0.1-13
		c0,0,2,0,2,0c0.1,2.2,0,4.3,0.1,6.5c0,3.8,0,9.2,0.1,13c0,1.6,0.7,3.2,0.7,4.9c0,0.5-0.2,1.1-0.9,1.6
		C99.5,25.9,97.5,25.9,97.5,25.9L97.5,25.9z"/>
</g>
<path class="st3" d="M100.9,25.4c0,0-0.7,0.7-1.8,0.7c-1.8,0-3.5-0.2-3.5-1.5c0.1-1.9,5.6-0.3,5.5-1.8c-0.2-1.5-5.9,0.3-5.5-1
	c0.4-1.3,3.3-1.2,5.1-1.1c1.8,0.2,0.3,2.6,0.2,3.9C100.7,25.2,100.9,25.4,100.9,25.4z"/>
</svg>
