<?xml version="1.0" encoding="utf-8"?>
<!-- Generator: Adobe Illustrator 26.0.3, SVG Export Plug-In . SVG Version: 6.00 Build 0)  -->
<svg version="1.1" id="Capa_2" xmlns="http://www.w3.org/2000/svg" xmlns:xlink="http://www.w3.org/1999/xlink" x="0px" y="0px"
	 viewBox="0 0 200 100" style="enable-background:new 0 0 200 100;" xml:space="preserve">
<style type="text/css">
	.st0{fill:#BABABA;}
	.st1{opacity:0.48;}
	.st2{opacity:0.44;}
	.st3{fill:#FFFFFF;}
</style>
<g>
	<g>
		<path class="st0" d="M72.1,59.3H49.9c-2.5,0-4.5-2-4.5-4.5V6.5c0-2.5,2-4.5,4.5-4.5h22.2c2.5,0,4.5,2,4.5,4.5v48.3
			C76.5,57.3,74.5,59.3,72.1,59.3z M49.9,2.6c-2.2,0-4,1.8-4,4v48.3c0,2.2,1.8,4,4,4h22.2c2.2,0,4-1.8,4-4V6.5c0-2.2-1.8-4-4-4H49.9
			z"/>
	</g>
	<g class="st1">
		<path class="st0" d="M72.1,57.1H49.9c-1.3,0-2.3-1-2.3-2.3V6.5c0-1.3,1-2.3,2.3-2.3h6.4c0.5,0,1,0.4,1,1v0.1
			c0,0.5,0.4,0.9,0.9,0.9h5.5c0.5,0,0.9-0.4,0.9-0.9V5.2c0-0.5,0.4-1,1-1h6.6c1.3,0,2.3,1,2.3,2.3v48.3
			C74.4,56.1,73.4,57.1,72.1,57.1z M49.9,4.4c-1.2,0-2.1,0.9-2.1,2.1v48.3c0,1.2,0.9,2.1,2.1,2.1h22.2c1.2,0,2.1-0.9,2.1-2.1V6.5
			c0-1.2-0.9-2.1-2.1-2.1h-6.6c-0.4,0-0.7,0.3-0.7,0.7v0.1c0,0.6-0.5,1.2-1.2,1.2h-5.5c-0.6,0-1.2-0.5-1.2-1.2V5.2
			c0-0.4-0.3-0.7-0.7-0.7H49.9z"/>
	</g>
	<g class="st2">
		<path class="st0" d="M63.4,5.3h-4.9c-0.2,0-0.4-0.2-0.4-0.4v0c0-0.2,0.2-0.4,0.4-0.4h4.9c0.2,0,0.4,0.2,0.4,0.4v0
			C63.8,5.1,63.6,5.3,63.4,5.3z"/>
	</g>
	<polygon class="st0" points="61.2,18.8 63.2,18.8 61,15.7 58.7,18.8 60.7,18.8 60.7,42.5 58.7,42.5 61,45.6 63.2,42.5 61.2,42.5 	
		"/>
	<g>
		<path class="st0" d="M97.4,54.3V32.1c0-2.5,2-4.5,4.5-4.5h48.3c2.5,0,4.5,2,4.5,4.5v22.2c0,2.5-2,4.5-4.5,4.5h-48.3
			C99.4,58.8,97.4,56.8,97.4,54.3z M154.1,32.1c0-2.2-1.8-4-4-4h-48.3c-2.2,0-4,1.8-4,4v22.2c0,2.2,1.8,4,4,4h48.3c2.2,0,4-1.8,4-4
			V32.1z"/>
	</g>
	<g class="st1">
		<path class="st0" d="M99.5,54.3V32.1c0-1.3,1-2.3,2.3-2.3h48.3c1.3,0,2.3,1,2.3,2.3v6.4c0,0.5-0.4,1-1,1h-0.1
			c-0.5,0-0.9,0.4-0.9,0.9v5.5c0,0.5,0.4,0.9,0.9,0.9h0.1c0.5,0,1,0.4,1,1v6.6c0,1.3-1,2.3-2.3,2.3h-48.3
			C100.6,56.6,99.5,55.6,99.5,54.3z M152.2,32.1c0-1.2-0.9-2.1-2.1-2.1h-48.3c-1.2,0-2.1,0.9-2.1,2.1v22.2c0,1.2,0.9,2.1,2.1,2.1
			h48.3c1.2,0,2.1-0.9,2.1-2.1v-6.6c0-0.4-0.3-0.7-0.7-0.7h-0.1c-0.6,0-1.2-0.5-1.2-1.2v-5.5c0-0.6,0.5-1.2,1.2-1.2h0.1
			c0.4,0,0.7-0.3,0.7-0.7V32.1z"/>
	</g>
	<g class="st2">
		<path class="st0" d="M151.4,45.7v-4.9c0-0.2,0.2-0.4,0.4-0.4l0,0c0.2,0,0.4,0.2,0.4,0.4v4.9c0,0.2-0.2,0.4-0.4,0.4l0,0
			C151.5,46,151.4,45.9,151.4,45.7z"/>
	</g>
	<polygon class="st0" points="137.8,43.4 137.8,45.4 140.9,43.2 137.8,40.9 137.8,42.9 114.2,42.9 114.2,40.9 111,43.2 114.2,45.4 
		114.2,43.4 	"/>
</g>
<g>
	<path class="st3" d="M3,80.4L2.1,68.7h2.8L4.1,80.4H3z M2.4,84.3V82h2.2v2.2H2.4z"/>
	<path class="st3" d="M7.3,84.3V68.7h3.3c1.3,0,2.3,0.4,2.9,1c0.7,0.7,1,1.7,1,3V80c0,1.5-0.4,2.5-1.1,3.2c-0.7,0.7-1.7,1-3.1,1H7.3
		z M9.6,70.8v11.4h1c0.6,0,1.1-0.2,1.3-0.5c0.3-0.3,0.4-0.8,0.4-1.5v-7.5c0-0.6-0.1-1.1-0.4-1.4c-0.2-0.3-0.7-0.5-1.4-0.5H9.6z"/>
	<path class="st3" d="M16.6,70.9v-2.2h2.2v2.2H16.6z M16.6,84.3V73.2h2.2v11.1H16.6z"/>
	<path class="st3" d="M24.8,76.3c0-0.4-0.1-0.7-0.4-0.9c-0.2-0.2-0.5-0.3-0.8-0.3c-0.3,0-0.6,0.1-0.8,0.3c-0.2,0.2-0.3,0.5-0.3,0.8
		c0,0.2,0.1,0.4,0.2,0.6c0.1,0.2,0.4,0.4,0.8,0.5l1.3,0.5c0.8,0.3,1.4,0.8,1.7,1.3c0.3,0.6,0.5,1.2,0.5,1.8c0,0.5-0.1,0.9-0.3,1.3
		s-0.4,0.8-0.7,1.1c-0.3,0.3-0.6,0.5-1,0.7c-0.4,0.2-0.9,0.3-1.3,0.3c-0.9,0-1.7-0.3-2.3-0.9c-0.3-0.3-0.6-0.6-0.7-1
		c-0.2-0.4-0.3-0.9-0.3-1.5h2.1c0,0.3,0.1,0.6,0.3,0.9c0.2,0.3,0.5,0.4,0.9,0.4c0.3,0,0.6-0.1,0.9-0.3c0.3-0.2,0.4-0.5,0.4-0.9
		c0-0.3-0.1-0.6-0.2-0.8s-0.5-0.4-0.9-0.6l-1.1-0.4c-0.7-0.3-1.3-0.7-1.7-1.2c-0.4-0.5-0.6-1.1-0.6-1.9c0-0.5,0.1-0.9,0.3-1.3
		c0.2-0.4,0.4-0.7,0.7-1c0.3-0.3,0.6-0.5,1-0.7c0.4-0.2,0.8-0.2,1.3-0.2c0.5,0,0.9,0.1,1.3,0.2c0.4,0.2,0.7,0.4,1,0.7
		c0.3,0.3,0.5,0.6,0.7,1c0.2,0.4,0.2,0.8,0.2,1.3H24.8z"/>
	<path class="st3" d="M28.9,84.3v-9.3h-1.1v-1.8h1.1v-1.5c0-0.5,0.1-1,0.2-1.4c0.2-0.4,0.4-0.7,0.7-0.9c0.3-0.2,0.6-0.4,0.9-0.5
		c0.3-0.1,0.7-0.2,1.1-0.2h1v2.1h-1c-0.4,0-0.7,0.3-0.7,0.8v1.6h1.7v1.8h-1.7v9.3H28.9z"/>
	<path class="st3" d="M33.6,84.3V73.2h2.2v1.2c0.5-0.4,0.9-0.7,1.3-1c0.4-0.2,1-0.4,1.6-0.4v2.4c-0.2-0.1-0.4-0.1-0.7-0.1
		c-0.2,0-0.5,0-0.8,0.1c-0.3,0.1-0.5,0.2-0.7,0.4c-0.2,0.2-0.4,0.4-0.6,0.7c-0.1,0.3-0.2,0.7-0.2,1.1v6.6H33.6z"/>
	<path class="st3" d="M46.4,73.2v11.1h-2.2v-1.1h0c-0.2,0.3-0.5,0.6-0.8,0.9c-0.3,0.2-0.7,0.3-1.3,0.3c-0.3,0-0.6,0-0.8-0.1
		c-0.3-0.1-0.5-0.3-0.7-0.5c-0.2-0.2-0.4-0.5-0.5-0.8c-0.1-0.3-0.2-0.8-0.2-1.3v-8.5H42v7.7c0,0.4,0.1,0.7,0.3,1
		c0.2,0.2,0.5,0.3,0.8,0.3c0.4,0,0.7-0.1,0.9-0.4c0.2-0.3,0.2-0.6,0.2-1.1v-7.5H46.4z"/>
	<path class="st3" d="M48.4,73.2v-3.4h2.2v3.4H52v1.8h-1.4v6.1c0,0.3,0,0.5,0.1,0.6c0.1,0.1,0.1,0.3,0.3,0.3
		c0.1,0.1,0.3,0.1,0.4,0.1c0.2,0,0.4,0,0.6,0v2.1h-0.9c-0.5,0-0.9-0.1-1.3-0.2c-0.3-0.2-0.6-0.4-0.8-0.6c-0.2-0.2-0.4-0.5-0.4-0.8
		c-0.1-0.3-0.1-0.6-0.1-0.9v-6.7h-1.1v-1.8H48.4z"/>
	<path class="st3" d="M57.2,84.3v-1.1h0c-0.3,0.4-0.6,0.7-0.9,0.9c-0.3,0.2-0.7,0.3-1.3,0.3c-0.3,0-0.5,0-0.8-0.1
		c-0.3-0.1-0.5-0.2-0.8-0.4c-0.2-0.2-0.4-0.5-0.6-0.9c-0.2-0.4-0.2-0.9-0.2-1.5c0-0.6,0.1-1.2,0.2-1.7c0.1-0.5,0.3-0.9,0.6-1.2
		c0.3-0.3,0.6-0.5,1.1-0.7c0.5-0.2,1-0.2,1.7-0.2c0.1,0,0.2,0,0.2,0s0.2,0,0.2,0c0.1,0,0.2,0,0.3,0c0.1,0,0.2,0,0.3,0v-1.2
		c0-0.4-0.1-0.7-0.2-0.9c-0.2-0.2-0.5-0.4-0.9-0.4c-0.3,0-0.6,0.1-0.8,0.3c-0.2,0.2-0.4,0.5-0.5,0.8h-2.2c0.1-1,0.4-1.8,1-2.4
		c0.3-0.3,0.6-0.5,1-0.7c0.4-0.2,0.9-0.3,1.4-0.3c0.5,0,0.9,0.1,1.3,0.2c0.4,0.1,0.8,0.4,1.1,0.7c0.3,0.3,0.5,0.7,0.7,1.1
		c0.2,0.4,0.3,0.9,0.3,1.5v7.7H57.2z M57.2,79.5c-0.2,0-0.5-0.1-0.6-0.1c-0.5,0-0.9,0.1-1.2,0.3C55,80,54.8,80.4,54.8,81
		c0,0.4,0.1,0.8,0.3,1c0.2,0.3,0.5,0.4,0.9,0.4c0.4,0,0.7-0.1,0.9-0.4c0.2-0.2,0.3-0.6,0.3-1V79.5z"/>
	<path class="st3" d="M61,68.7h2.2v12.4c0,0.4,0.1,0.7,0.2,0.9c0.2,0.2,0.4,0.3,0.9,0.3v2.1c-0.5,0-1,0-1.4-0.1
		c-0.4-0.1-0.8-0.2-1-0.5c-0.3-0.2-0.5-0.5-0.7-0.9C61.1,82.5,61,82,61,81.3V68.7z"/>
	<path class="st3" d="M65.1,76.9c0-0.5,0-0.9,0.1-1.2c0.1-0.4,0.2-0.7,0.3-1c0.3-0.5,0.6-0.9,1.1-1.2s1.1-0.4,1.8-0.4
		c0.7,0,1.3,0.1,1.8,0.4c0.5,0.3,0.9,0.7,1.1,1.2c0.2,0.3,0.3,0.6,0.3,1c0.1,0.4,0.1,0.8,0.1,1.2v3.7c0,0.5,0,0.9-0.1,1.2
		c-0.1,0.4-0.2,0.7-0.3,1c-0.3,0.5-0.6,0.9-1.1,1.2c-0.5,0.3-1.1,0.4-1.8,0.4c-0.7,0-1.3-0.1-1.8-0.4s-0.9-0.7-1.1-1.2
		c-0.2-0.3-0.3-0.6-0.3-1c-0.1-0.4-0.1-0.8-0.1-1.2V76.9z M67.4,80.9c0,0.4,0.1,0.7,0.3,1c0.2,0.2,0.5,0.3,0.8,0.3
		c0.3,0,0.6-0.1,0.8-0.3c0.2-0.2,0.3-0.5,0.3-1v-4.4c0-0.4-0.1-0.7-0.3-1c-0.2-0.2-0.5-0.3-0.8-0.3c-0.3,0-0.6,0.1-0.8,0.3
		c-0.2,0.2-0.3,0.5-0.3,1V80.9z"/>
	<path class="st3" d="M84.2,79.6h-4.4v1.5c0,0.3,0.1,0.6,0.3,0.8c0.2,0.2,0.5,0.3,0.8,0.3c0.4,0,0.7-0.1,0.8-0.4
		c0.1-0.2,0.2-0.5,0.3-0.7h2.2c0,1-0.3,1.8-0.9,2.4c-0.3,0.3-0.6,0.5-1,0.7c-0.4,0.2-0.9,0.3-1.4,0.3c-0.7,0-1.3-0.1-1.8-0.4
		s-0.9-0.7-1.1-1.2c-0.2-0.3-0.3-0.6-0.3-1c-0.1-0.4-0.1-0.8-0.1-1.2v-3.7c0-0.5,0-0.9,0.1-1.2c0.1-0.4,0.2-0.7,0.3-1
		c0.3-0.5,0.6-0.9,1.1-1.2s1.1-0.4,1.8-0.4c0.5,0,1,0.1,1.4,0.3c0.4,0.2,0.8,0.4,1.1,0.7c0.6,0.7,0.9,1.5,0.9,2.5V79.6z M79.7,77.8
		h2.2v-1.3c0-0.4-0.1-0.7-0.3-1c-0.2-0.2-0.5-0.3-0.8-0.3c-0.3,0-0.6,0.1-0.8,0.3c-0.2,0.2-0.3,0.5-0.3,1V77.8z"/>
	<path class="st3" d="M85.9,84.3V73.2h2.2v1.1h0c0.2-0.4,0.5-0.6,0.8-0.9c0.3-0.2,0.7-0.3,1.3-0.3c0.3,0,0.6,0,0.8,0.1
		c0.3,0.1,0.5,0.3,0.7,0.5c0.2,0.2,0.4,0.5,0.5,0.8c0.1,0.3,0.2,0.8,0.2,1.3v8.5h-2.2v-7.7c0-0.4-0.1-0.7-0.3-1
		c-0.2-0.2-0.5-0.4-0.8-0.4c-0.4,0-0.7,0.1-0.9,0.4c-0.2,0.3-0.2,0.6-0.2,1.1v7.5H85.9z"/>
	<path class="st3" d="M102.9,84.3v-1.1h0c-0.3,0.4-0.6,0.7-0.9,0.9c-0.3,0.2-0.7,0.3-1.3,0.3c-0.3,0-0.5,0-0.8-0.1
		c-0.3-0.1-0.5-0.2-0.8-0.4c-0.2-0.2-0.4-0.5-0.6-0.9c-0.2-0.4-0.2-0.9-0.2-1.5c0-0.6,0.1-1.2,0.2-1.7c0.1-0.5,0.3-0.9,0.6-1.2
		c0.3-0.3,0.6-0.5,1.1-0.7c0.5-0.2,1-0.2,1.7-0.2c0.1,0,0.2,0,0.2,0c0.1,0,0.2,0,0.2,0c0.1,0,0.2,0,0.3,0c0.1,0,0.2,0,0.3,0v-1.2
		c0-0.4-0.1-0.7-0.2-0.9c-0.2-0.2-0.5-0.4-0.9-0.4c-0.3,0-0.6,0.1-0.8,0.3c-0.2,0.2-0.4,0.5-0.5,0.8h-2.2c0.1-1,0.4-1.8,1-2.4
		c0.3-0.3,0.6-0.5,1-0.7c0.4-0.2,0.9-0.3,1.4-0.3c0.5,0,0.9,0.1,1.3,0.2c0.4,0.1,0.8,0.4,1.1,0.7c0.3,0.3,0.5,0.7,0.7,1.1
		c0.2,0.4,0.3,0.9,0.3,1.5v7.7H102.9z M102.9,79.5c-0.2,0-0.5-0.1-0.6-0.1c-0.5,0-0.9,0.1-1.2,0.3c-0.3,0.2-0.5,0.6-0.5,1.2
		c0,0.4,0.1,0.8,0.3,1c0.2,0.3,0.5,0.4,0.9,0.4c0.4,0,0.7-0.1,0.9-0.4c0.2-0.2,0.3-0.6,0.3-1V79.5z"/>
	<path class="st3" d="M106.9,84.3V73.2h2.2v1.1h0c0.2-0.4,0.5-0.6,0.8-0.9c0.3-0.2,0.7-0.3,1.3-0.3c0.5,0,0.9,0.1,1.2,0.4
		c0.3,0.2,0.6,0.5,0.8,0.8c0.3-0.3,0.6-0.6,0.9-0.8c0.3-0.2,0.8-0.3,1.4-0.3c0.3,0,0.6,0,0.9,0.1c0.3,0.1,0.6,0.3,0.8,0.5
		c0.2,0.2,0.4,0.5,0.6,0.8c0.1,0.3,0.2,0.8,0.2,1.3v8.5h-2.2v-7.7c0-0.4-0.1-0.7-0.3-1c-0.2-0.2-0.5-0.4-0.8-0.4
		c-0.4,0-0.7,0.1-0.9,0.4c-0.2,0.3-0.2,0.6-0.2,1.1v7.5h-2.2v-7.7c0-0.4-0.1-0.7-0.3-1c-0.2-0.2-0.5-0.4-0.8-0.4
		c-0.4,0-0.7,0.1-0.9,0.4c-0.2,0.3-0.2,0.6-0.2,1.1v7.5H106.9z"/>
	<path class="st3" d="M120,84.3V68.7h2.2v5.5h0c0.2-0.4,0.5-0.6,0.9-0.8c0.3-0.2,0.7-0.3,1.2-0.3c0.5,0,1,0.1,1.3,0.3
		c0.3,0.2,0.5,0.4,0.7,0.7c0.1,0.2,0.2,0.5,0.3,0.9c0,0.4,0.1,1,0.1,1.8V81c0,0.6,0,1.1-0.1,1.5c-0.1,0.4-0.2,0.7-0.3,0.9
		c-0.4,0.7-1,1-1.9,1c-0.6,0-1-0.1-1.3-0.3c-0.3-0.2-0.6-0.5-0.9-0.8v1H120z M124.4,76.6c0-0.4-0.1-0.7-0.2-0.9
		c-0.2-0.3-0.4-0.4-0.9-0.4c-0.3,0-0.6,0.1-0.8,0.3c-0.2,0.2-0.3,0.5-0.3,0.9v4.3c0,0.4,0.1,0.7,0.3,1c0.2,0.3,0.5,0.4,0.8,0.4
		c0.4,0,0.7-0.1,0.8-0.4c0.2-0.3,0.3-0.6,0.3-1.1V76.6z"/>
	<path class="st3" d="M128.4,76.9c0-0.5,0-0.9,0.1-1.2c0.1-0.4,0.2-0.7,0.3-1c0.3-0.5,0.6-0.9,1.1-1.2c0.5-0.3,1.1-0.4,1.8-0.4
		c0.7,0,1.3,0.1,1.8,0.4c0.5,0.3,0.9,0.7,1.1,1.2c0.2,0.3,0.3,0.6,0.3,1c0.1,0.4,0.1,0.8,0.1,1.2v3.7c0,0.5,0,0.9-0.1,1.2
		c-0.1,0.4-0.2,0.7-0.3,1c-0.3,0.5-0.6,0.9-1.1,1.2c-0.5,0.3-1.1,0.4-1.8,0.4c-0.7,0-1.3-0.1-1.8-0.4c-0.5-0.3-0.9-0.7-1.1-1.2
		c-0.2-0.3-0.3-0.6-0.3-1c-0.1-0.4-0.1-0.8-0.1-1.2V76.9z M130.6,80.9c0,0.4,0.1,0.7,0.3,1c0.2,0.2,0.5,0.3,0.8,0.3
		c0.3,0,0.6-0.1,0.8-0.3c0.2-0.2,0.3-0.5,0.3-1v-4.4c0-0.4-0.1-0.7-0.3-1c-0.2-0.2-0.5-0.3-0.8-0.3c-0.3,0-0.6,0.1-0.8,0.3
		c-0.2,0.2-0.3,0.5-0.3,1V80.9z"/>
	<path class="st3" d="M140.8,76.3c0-0.4-0.1-0.7-0.4-0.9c-0.2-0.2-0.5-0.3-0.8-0.3c-0.4,0-0.6,0.1-0.8,0.3c-0.2,0.2-0.3,0.5-0.3,0.8
		c0,0.2,0.1,0.4,0.2,0.6c0.1,0.2,0.4,0.4,0.8,0.5l1.3,0.5c0.8,0.3,1.4,0.8,1.7,1.3c0.3,0.6,0.5,1.2,0.5,1.8c0,0.5-0.1,0.9-0.3,1.3
		c-0.2,0.4-0.4,0.8-0.7,1.1s-0.6,0.5-1,0.7c-0.4,0.2-0.9,0.3-1.3,0.3c-0.9,0-1.7-0.3-2.3-0.9c-0.3-0.3-0.6-0.6-0.7-1
		c-0.2-0.4-0.3-0.9-0.3-1.5h2.1c0,0.3,0.2,0.6,0.3,0.9c0.2,0.3,0.5,0.4,0.9,0.4c0.3,0,0.6-0.1,0.9-0.3c0.3-0.2,0.4-0.5,0.4-0.9
		c0-0.3-0.1-0.6-0.2-0.8c-0.2-0.2-0.5-0.4-0.9-0.6l-1.1-0.4c-0.7-0.3-1.3-0.7-1.7-1.2c-0.4-0.5-0.6-1.1-0.6-1.9
		c0-0.5,0.1-0.9,0.3-1.3c0.2-0.4,0.4-0.7,0.7-1c0.3-0.3,0.6-0.5,1-0.7c0.4-0.2,0.8-0.2,1.3-0.2c0.5,0,0.9,0.1,1.3,0.2
		c0.4,0.2,0.7,0.4,1,0.7c0.3,0.3,0.5,0.6,0.7,1c0.2,0.4,0.2,0.8,0.2,1.3H140.8z"/>
	<path class="st3" d="M148.8,84.3V73.2h2.2v1.1h0c0.2-0.4,0.5-0.6,0.8-0.9c0.3-0.2,0.7-0.3,1.3-0.3c0.5,0,0.9,0.1,1.2,0.4
		c0.3,0.2,0.6,0.5,0.8,0.8c0.3-0.3,0.6-0.6,0.9-0.8c0.3-0.2,0.8-0.3,1.4-0.3c0.3,0,0.6,0,0.9,0.1c0.3,0.1,0.6,0.3,0.8,0.5
		c0.2,0.2,0.4,0.5,0.6,0.8c0.1,0.3,0.2,0.8,0.2,1.3v8.5h-2.2v-7.7c0-0.4-0.1-0.7-0.3-1c-0.2-0.2-0.5-0.4-0.8-0.4
		c-0.4,0-0.7,0.1-0.9,0.4c-0.2,0.3-0.2,0.6-0.2,1.1v7.5h-2.2v-7.7c0-0.4-0.1-0.7-0.3-1c-0.2-0.2-0.5-0.4-0.8-0.4
		c-0.4,0-0.7,0.1-0.9,0.4c-0.2,0.3-0.2,0.6-0.2,1.1v7.5H148.8z"/>
	<path class="st3" d="M161.6,76.9c0-0.5,0-0.9,0.1-1.2c0.1-0.4,0.2-0.7,0.3-1c0.3-0.5,0.6-0.9,1.1-1.2c0.5-0.3,1.1-0.4,1.8-0.4
		c0.7,0,1.3,0.1,1.8,0.4c0.5,0.3,0.9,0.7,1.1,1.2c0.2,0.3,0.3,0.6,0.3,1c0.1,0.4,0.1,0.8,0.1,1.2v3.7c0,0.5,0,0.9-0.1,1.2
		c-0.1,0.4-0.2,0.7-0.3,1c-0.3,0.5-0.6,0.9-1.1,1.2c-0.5,0.3-1.1,0.4-1.8,0.4c-0.7,0-1.3-0.1-1.8-0.4c-0.5-0.3-0.9-0.7-1.1-1.2
		c-0.2-0.3-0.3-0.6-0.3-1c-0.1-0.4-0.1-0.8-0.1-1.2V76.9z M163.9,80.9c0,0.4,0.1,0.7,0.3,1c0.2,0.2,0.5,0.3,0.8,0.3
		c0.3,0,0.6-0.1,0.8-0.3c0.2-0.2,0.3-0.5,0.3-1v-4.4c0-0.4-0.1-0.7-0.3-1c-0.2-0.2-0.5-0.3-0.8-0.3c-0.3,0-0.6,0.1-0.8,0.3
		c-0.2,0.2-0.3,0.5-0.3,1V80.9z"/>
	<path class="st3" d="M174.5,84.3v-1c-0.1,0.2-0.3,0.3-0.4,0.4c-0.1,0.1-0.3,0.3-0.4,0.4c-0.2,0.1-0.3,0.2-0.5,0.2
		c-0.2,0.1-0.4,0.1-0.7,0.1c-0.9,0-1.6-0.3-1.9-1c-0.1-0.2-0.2-0.6-0.3-0.9c-0.1-0.4-0.1-0.9-0.1-1.5v-4.2c0-0.8,0-1.4,0.1-1.8
		c0.1-0.7,0.4-1.3,1-1.6c0.3-0.2,0.7-0.3,1.2-0.3c0.4,0,0.8,0.1,1.2,0.3c0.3,0.2,0.6,0.5,0.9,0.8h0v-5.5h2.2v15.6H174.5z
		 M172.3,80.7c0,0.5,0.1,0.8,0.3,1.1c0.2,0.3,0.5,0.4,0.8,0.4c0.3,0,0.6-0.1,0.8-0.4c0.2-0.3,0.3-0.6,0.3-1v-4.3
		c0-0.4-0.1-0.6-0.3-0.9c-0.2-0.2-0.5-0.3-0.8-0.3c-0.4,0-0.7,0.1-0.9,0.4c-0.2,0.3-0.2,0.6-0.2,0.9V80.7z"/>
	<path class="st3" d="M178.5,76.9c0-0.5,0-0.9,0.1-1.2c0.1-0.4,0.2-0.7,0.3-1c0.3-0.5,0.6-0.9,1.1-1.2c0.5-0.3,1.1-0.4,1.8-0.4
		c0.7,0,1.3,0.1,1.8,0.4c0.5,0.3,0.9,0.7,1.1,1.2c0.2,0.3,0.3,0.6,0.3,1c0.1,0.4,0.1,0.8,0.1,1.2v3.7c0,0.5,0,0.9-0.1,1.2
		c-0.1,0.4-0.2,0.7-0.3,1c-0.3,0.5-0.6,0.9-1.1,1.2c-0.5,0.3-1.1,0.4-1.8,0.4c-0.7,0-1.3-0.1-1.8-0.4c-0.5-0.3-0.9-0.7-1.1-1.2
		c-0.2-0.3-0.3-0.6-0.3-1c-0.1-0.4-0.1-0.8-0.1-1.2V76.9z M180.7,80.9c0,0.4,0.1,0.7,0.3,1c0.2,0.2,0.5,0.3,0.8,0.3s0.6-0.1,0.8-0.3
		c0.2-0.2,0.3-0.5,0.3-1v-4.4c0-0.4-0.1-0.7-0.3-1c-0.2-0.2-0.5-0.3-0.8-0.3s-0.6,0.1-0.8,0.3c-0.2,0.2-0.3,0.5-0.3,1V80.9z"/>
	<path class="st3" d="M190.9,76.3c0-0.4-0.1-0.7-0.4-0.9c-0.2-0.2-0.5-0.3-0.8-0.3c-0.4,0-0.6,0.1-0.8,0.3c-0.2,0.2-0.3,0.5-0.3,0.8
		c0,0.2,0.1,0.4,0.2,0.6c0.1,0.2,0.4,0.4,0.8,0.5l1.3,0.5c0.8,0.3,1.4,0.8,1.7,1.3c0.3,0.6,0.5,1.2,0.5,1.8c0,0.5-0.1,0.9-0.3,1.3
		c-0.2,0.4-0.4,0.8-0.7,1.1s-0.6,0.5-1,0.7c-0.4,0.2-0.9,0.3-1.3,0.3c-0.9,0-1.7-0.3-2.3-0.9c-0.3-0.3-0.6-0.6-0.7-1
		c-0.2-0.4-0.3-0.9-0.3-1.5h2.1c0,0.3,0.2,0.6,0.3,0.9c0.2,0.3,0.5,0.4,0.9,0.4c0.3,0,0.6-0.1,0.9-0.3c0.3-0.2,0.4-0.5,0.4-0.9
		c0-0.3-0.1-0.6-0.2-0.8c-0.2-0.2-0.5-0.4-0.9-0.6l-1.1-0.4c-0.7-0.3-1.3-0.7-1.7-1.2c-0.4-0.5-0.6-1.1-0.6-1.9
		c0-0.5,0.1-0.9,0.3-1.3c0.2-0.4,0.4-0.7,0.7-1c0.3-0.3,0.6-0.5,1-0.7c0.4-0.2,0.8-0.2,1.3-0.2c0.5,0,0.9,0.1,1.3,0.2
		c0.4,0.2,0.7,0.4,1,0.7c0.3,0.3,0.5,0.6,0.7,1c0.2,0.4,0.2,0.8,0.2,1.3H190.9z"/>
	<path class="st3" d="M195,88.8l0.9-11.7h1.1l0.9,11.7H195z M195.3,75.4v-2.2h2.2v2.2H195.3z"/>
</g>
</svg>
