<?xml version="1.0" encoding="utf-8"?>
<!-- Generator: Adobe Illustrator 26.1.0, SVG Export Plug-In . SVG Version: 6.00 Build 0)  -->
<svg version="1.1" id="Capa_1" xmlns="http://www.w3.org/2000/svg" xmlns:xlink="http://www.w3.org/1999/xlink" x="0px" y="0px"
	 viewBox="0 0 166.9 280" style="enable-background:new 0 0 166.9 280;" xml:space="preserve">
<style type="text/css">
	.st0{fill:#C7DCDD;}
	.st1{fill:#AF4820;}
</style>
<g>
	<g>
		<path class="st0" d="M6.9,3.6h21.5c2.4,0,4.6,0.4,6.6,1.1s3.7,1.8,5.2,3s2.6,2.7,3.4,4.4c0.8,1.7,1.2,3.4,1.2,5.2
			c0,2.2-0.3,4.2-1,6.1c-0.6,1.9-1.6,3.5-3,4.9c-1.4,1.4-3.1,2.5-5.1,3.3c-2.1,0.8-4.5,1.2-7.3,1.2h-6.5v8.9h4.3v8.4H6.9v-8.4h4.8
			V12H6.9V3.6z M21.9,12v12.5h4.2c2.3,0,4.2-0.5,5.6-1.5c1.4-1,2.1-2.5,2.1-4.7c0-2-0.6-3.5-1.9-4.7S28.6,12,26.1,12H21.9z"/>
		<path class="st0" d="M82.7,51c-2.1,0-4.1-0.3-6-0.9c-1.9-0.6-3.7-1.4-5.4-2.4c-1.7-1-3.2-2.3-4.5-3.8c-1.4-1.5-2.5-3.1-3.5-4.9
			c-1-1.8-1.7-3.7-2.2-5.8s-0.8-4.2-0.8-6.4s0.3-4.4,0.8-6.4s1.3-4,2.2-5.8c1-1.8,2.1-3.4,3.5-4.9c1.4-1.5,2.9-2.7,4.5-3.8
			c1.7-1,3.5-1.9,5.4-2.4c1.9-0.6,3.9-0.9,6-0.9c2.1,0,4.1,0.3,6.1,0.9S92.5,5,94.1,6c1.7,1,3.2,2.3,4.5,3.8
			c1.4,1.5,2.5,3.1,3.5,4.9s1.7,3.7,2.3,5.8s0.8,4.2,0.8,6.4c0,2.2-0.3,4.3-0.8,6.4s-1.3,4-2.3,5.8s-2.1,3.4-3.5,4.9
			c-1.4,1.5-2.9,2.7-4.5,3.8c-1.7,1-3.5,1.9-5.4,2.4C86.8,50.7,84.8,51,82.7,51z M82.7,41.3c1.8,0,3.4-0.4,4.9-1.2s2.8-1.8,3.8-3.1
			s1.9-2.9,2.5-4.6s0.9-3.6,0.9-5.6c0-2-0.3-3.9-0.9-5.6c-0.6-1.8-1.4-3.3-2.5-4.6c-1.1-1.3-2.3-2.4-3.8-3.1s-3.1-1.2-4.8-1.2
			c-1.8,0-3.4,0.4-4.8,1.2s-2.7,1.8-3.8,3.1c-1.1,1.3-1.9,2.9-2.5,4.6s-0.9,3.6-0.9,5.6c0,2,0.3,3.8,0.9,5.6S73,35.7,74,37
			c1.1,1.3,2.3,2.4,3.8,3.1S80.9,41.3,82.7,41.3z"/>
		<path class="st0" d="M120.7,3.6h24.6c2.4,0,4.5,0.4,6.4,1.1s3.5,1.7,4.8,2.9s2.3,2.6,3,4.2s1,3.2,1,5c0,1.6-0.2,3-0.5,4.1
			c-0.3,1.2-0.8,2.2-1.5,3.2c-0.6,0.9-1.4,1.7-2.4,2.4c-0.9,0.7-2,1.3-3.2,1.9c1,0.5,2,1.3,2.8,2.4c0.8,1.1,1.4,2.5,1.8,4.3l1.6,6
			h3.8l0.1,9.1h-13.5l-1.8-11c-0.2-1.3-0.5-2.4-0.8-3.4c-0.4-1-0.9-1.7-1.5-2.3c-0.6-0.6-1.4-1-2.3-1.3c-0.9-0.3-2-0.4-3.2-0.4h-4
			v10.1h4.3v8.4h-19.3v-8.4h4.8V12h-4.8V3.6z M135.7,12v11.3h6.1c1.2,0,2.2-0.1,3.1-0.3c0.9-0.2,1.7-0.6,2.4-1
			c0.7-0.5,1.2-1,1.5-1.7c0.4-0.7,0.5-1.5,0.5-2.5c0-1.8-0.6-3.2-1.9-4.2c-1.3-1-3.2-1.5-5.7-1.5H135.7z"/>
		<path class="st0" d="M14.8,117.2h4.8v-30H14v6H4V79h42.3v14.1H36.3v-6h-6.4v30h4.9v8.4H14.8V117.2z"/>
		<path class="st0" d="M145.2,117.2h4.6l-2.1-6.7h-14.3l-2.1,6.7h4.9v8.4h-17.6v-8.4h3.5L134.8,79h12.3l12.4,38.1h3.4v8.4h-17.6
			V117.2z M135.9,102.6h9.4l-4.7-15.1L135.9,102.6z"/>
		<path class="st0" d="M6.9,154.5h36v15.9h-10v-6.5h-11v9.8h9.5v8.9h-9.5v10.1h4.9v8.4H6.9v-8.4h4.8v-28.8H6.9V154.5z"/>
		<path class="st0" d="M140.3,201.8c-2.1,0-4.1-0.3-6-0.9s-3.7-1.4-5.4-2.4s-3.2-2.3-4.5-3.8c-1.4-1.5-2.5-3.1-3.5-4.9
			s-1.7-3.7-2.2-5.8s-0.8-4.2-0.8-6.4c0-2.2,0.3-4.4,0.8-6.4c0.5-2.1,1.3-4,2.2-5.8s2.1-3.4,3.5-4.9c1.4-1.5,2.9-2.7,4.5-3.8
			s3.5-1.9,5.4-2.4c1.9-0.6,3.9-0.9,6-0.9s4.1,0.3,6.1,0.9c1.9,0.6,3.7,1.4,5.4,2.4s3.2,2.3,4.5,3.8s2.5,3.1,3.5,4.9
			c1,1.8,1.7,3.7,2.3,5.8c0.5,2.1,0.8,4.2,0.8,6.4c0,2.2-0.3,4.3-0.8,6.4c-0.5,2.1-1.3,4-2.3,5.8c-1,1.8-2.1,3.4-3.5,4.9
			s-2.9,2.7-4.5,3.8s-3.5,1.9-5.4,2.4C144.5,201.5,142.4,201.8,140.3,201.8z M140.3,192.2c1.8,0,3.4-0.4,4.9-1.2
			c1.5-0.8,2.8-1.8,3.8-3.1c1.1-1.3,1.9-2.9,2.5-4.6s0.9-3.6,0.9-5.6c0-2-0.3-3.9-0.9-5.6c-0.6-1.8-1.4-3.3-2.5-4.6
			c-1.1-1.3-2.3-2.4-3.8-3.1c-1.5-0.8-3.1-1.2-4.8-1.2c-1.8,0-3.4,0.4-4.8,1.2c-1.5,0.8-2.7,1.8-3.8,3.1s-1.9,2.9-2.5,4.6
			c-0.6,1.8-0.9,3.6-0.9,5.6c0,2,0.3,3.8,0.9,5.6s1.4,3.3,2.5,4.6c1.1,1.3,2.3,2.4,3.8,3.1C137,191.8,138.6,192.2,140.3,192.2z"/>
		<path class="st0" d="M6.9,229.9h19.9v8.4h-4.9V268H32c0.3,0,0.5-0.1,0.8-0.2c0.3-0.2,0.5-0.4,0.7-0.6s0.4-0.5,0.5-0.8
			c0.1-0.3,0.2-0.6,0.2-0.8v-6.2h9.9v17.1H6.9V268h4.8v-29.7H6.9V229.9z"/>
		<path class="st0" d="M71,229.9h19.9v8.4H86V268h4.9v8.4H71V268h4.8v-29.7H71V229.9z"/>
		<path class="st0" d="M140.3,277.3c-2.1,0-4.1-0.3-6-0.9c-1.9-0.6-3.7-1.4-5.4-2.4c-1.7-1-3.2-2.3-4.5-3.8
			c-1.4-1.5-2.5-3.1-3.5-4.9s-1.7-3.7-2.2-5.8s-0.8-4.2-0.8-6.4s0.3-4.4,0.8-6.4c0.5-2.1,1.3-4,2.2-5.8c1-1.8,2.1-3.4,3.5-4.9
			c1.4-1.5,2.9-2.7,4.5-3.8c1.7-1,3.5-1.9,5.4-2.4c1.9-0.6,3.9-0.9,6-0.9s4.1,0.3,6.1,0.9c1.9,0.6,3.7,1.4,5.4,2.4s3.2,2.3,4.5,3.8
			s2.5,3.1,3.5,4.9c1,1.8,1.7,3.7,2.3,5.8c0.5,2.1,0.8,4.2,0.8,6.4c0,2.2-0.3,4.3-0.8,6.4c-0.5,2.1-1.3,4-2.3,5.8
			c-1,1.8-2.1,3.4-3.5,4.9s-2.9,2.7-4.5,3.8s-3.5,1.9-5.4,2.4C144.5,277,142.4,277.3,140.3,277.3z M140.3,267.6
			c1.8,0,3.4-0.4,4.9-1.2s2.8-1.8,3.8-3.1s1.9-2.9,2.5-4.6s0.9-3.6,0.9-5.6c0-2-0.3-3.9-0.9-5.6c-0.6-1.8-1.4-3.3-2.5-4.6
			c-1.1-1.3-2.3-2.4-3.8-3.1c-1.5-0.8-3.1-1.2-4.8-1.2s-3.4,0.4-4.8,1.2c-1.5,0.8-2.7,1.8-3.8,3.1c-1.1,1.3-1.9,2.9-2.5,4.6
			c-0.6,1.8-0.9,3.6-0.9,5.6c0,2,0.3,3.8,0.9,5.6s1.4,3.3,2.5,4.6c1.1,1.3,2.3,2.4,3.8,3.1C137,267.2,138.6,267.6,140.3,267.6z"/>
	</g>
	<rect x="71" y="79" class="st1" width="19.9" height="122"/>
</g>
</svg>
